<svg width="345.33494873046874px" height="121.76000366210937px" xmlns="http://www.w3.org/2000/svg" viewBox="77.33252563476563 14.119998168945315 345.33494873046874 121.76000366210937" style="background: rgba(0, 0, 0, 0);" preserveAspectRatio="xMidYMid"><defs><filter id="editing-hole" x="-100%" y="-100%" width="300%" height="300%"><feFlood flood-color="#000" result="black"></feFlood><feMorphology operator="dilate" radius="2" in="SourceGraphic" result="erode"></feMorphology><feGaussianBlur in="erode" stdDeviation="4" result="blur"></feGaussianBlur><feOffset in="blur" dx="2" dy="2" result="offset"></feOffset><feComposite operator="atop" in="offset" in2="black" result="merge"></feComposite><feComposite operator="in" in="merge" in2="SourceGraphic" result="inner-shadow"></feComposite></filter></defs><g filter="url(#editing-hole)"><g transform="translate(132.0338322520256, 98.8850040435791)"><path d="M2.51 2.10L2.51 2.10L2.51 2.10Q2.51 5.89 6.50 6.66L6.50 6.66L6.50 6.66Q7.27 6.81 8.24 6.81L8.24 6.81L8.24 6.81Q14.64 6.81 18.38 2.69L18.38 2.69L18.38 2.69Q22.12-1.43 22.12-7.68L22.12-7.68L22.12-7.68Q22.12-10.14 21.22-12.21L21.22-12.21L21.22-12.21Q20.33-14.28 19.00-15.64L19.00-15.64L19.00-15.64Q17.66-17.00 16.10-18.38L16.10-18.38L16.10-18.38Q14.54-19.76 13.21-20.89L13.21-20.89L13.21-20.89Q11.88-22.02 10.98-23.60L10.98-23.60L10.98-23.60Q10.09-25.19 10.09-26.98L10.09-26.98L10.09-26.98Q10.09-31.69 14.31-35.66L14.31-35.66L14.31-35.66Q18.53-39.63 23.40-39.63L23.40-39.63L23.40-39.63Q24.37-39.63 24.83-38.91L24.83-38.91L24.83-38.91Q25.29-38.20 25.29-37.48L25.29-37.48L25.24-36.81L25.24-36.81Q24.88-37.02 23.45-37.02L23.45-37.02L23.45-37.02Q20.17-37.02 17.10-33.95L17.10-33.95L17.10-33.95Q14.03-30.87 14.03-26.83L14.03-26.83L14.03-26.83Q14.03-25.19 14.92-23.63L14.92-23.63L14.92-23.63Q15.82-22.07 17.15-20.89L17.15-20.89L17.15-20.89Q18.48-19.71 20.02-18.25L20.02-18.25L20.02-18.25Q21.56-16.79 22.89-15.39L22.89-15.39L22.89-15.39Q24.22-13.98 25.11-11.96L25.11-11.96L25.11-11.96Q26.01-9.93 26.01-7.68L26.01-7.68L26.01-7.68Q26.01-1.48 20.89 3.33L20.89 3.33L20.89 3.33Q15.77 8.14 8.24 8.14L8.24 8.14L8.24 8.14Q1.89 8.14 0.20 4.04L0.20 4.04L0.20 4.04Q-1.13 0.67 1.23-3.43L1.23-3.43L1.23-3.43Q3.58-7.53 8.04-8.96L8.04-8.96L8.04-8.96Q9.68-9.47 10.96-9.47L10.96-9.47L10.96-9.47Q12.24-9.47 12.72-9.04L12.72-9.04L12.72-9.04Q13.21-8.60 13.36-7.68L13.36-7.68L13.36-7.68Q8.55-7.68 5.12-3.79L5.12-3.79L5.12-3.79Q2.51-0.87 2.51 2.10ZM26.27-26.21L26.27-26.21L26.27-26.21Q26.27-25.96 25.78-25.96L25.78-25.96L25.78-25.96Q25.29-25.96 24.88-26.16L24.88-26.16L24.88-26.16Q24.47-26.37 24.47-26.73L24.47-26.73L24.47-26.73Q24.47-31.95 25.65-35.12L25.65-35.12L25.65-35.12Q26.83-38.30 28.77-38.30L28.77-38.30L28.77-38.30Q29.29-38.30 29.64-37.94L29.64-37.94L29.64-37.94Q30.00-37.58 30.00-37.02L30.00-37.02L30.00-37.02Q27.70-34.71 26.68-30.11L26.68-30.11L26.68-30.11Q26.27-28.26 26.27-26.21ZM33.89-22.17L33.89-22.17L33.89-22.17Q31.90-22.17 31.90-23.81L31.90-23.81L31.90-23.81Q31.90-24.42 32.41-24.58L32.41-24.58L32.41-24.58Q32.46-24.63 32.56-24.63L32.56-24.63L32.56-24.63Q32.87-24.27 33.72-24.27L33.72-24.27L33.72-24.27Q34.56-24.27 36.40-24.37L36.40-24.37L36.40-24.37Q38.81-30.87 41.01-30.87L41.01-30.87L41.01-30.87Q41.88-30.87 41.88-29.90L41.88-29.90L41.88-29.90Q41.06-27.85 40.04-24.63L40.04-24.63L40.04-24.63Q45.11-25.19 46.64-25.19L46.64-25.19L46.64-25.19Q47.05-25.19 47.05-24.78L47.05-24.78L47.05-24.78Q47.05-23.96 45.98-23.96L45.98-23.96L45.98-23.96Q45.41-23.96 39.48-22.89L39.48-22.89L39.48-22.89Q35.43-10.09 35.43-2.15L35.43-2.15L35.43-2.15Q35.43 5.79 38.60 5.79L38.60 5.79L38.60 5.79Q39.88 5.79 41.01 4.68L41.01 4.68L41.01 4.68Q42.14 3.58 42.60 2.51L42.60 2.51L42.60 2.51Q42.80 1.95 43.47 2.20L43.47 2.20L43.47 2.20Q43.78 2.30 43.67 2.51L43.67 2.51L43.67 2.51Q43.37 3.17 42.91 4.04L42.91 4.04L42.91 4.04Q42.44 4.92 41.11 6.20L41.11 6.20L41.11 6.20Q39.78 7.48 38.40 7.48L38.40 7.48L38.40 7.48Q32.31 7.48 32.31-3.12L32.31-3.12L32.31-3.12Q32.31-12.08 35.64-22.27L35.64-22.27L35.64-22.27Q34.92-22.17 33.89-22.17ZM51.92 0.46L51.92 0.46L51.92 0.46Q45.62 0.46 45.62-8.19L45.62-8.19L45.62-8.19Q45.62-13.06 48.08-17.92L48.08-17.92L48.08-17.92Q51.20-24.06 55.50-24.06L55.50-24.06L55.50-24.06Q56.12-24.06 56.52-23.76L56.52-23.76L56.52-23.76Q56.93-23.45 57.09-22.84L57.09-22.84L57.09-22.84Q53.86-22.84 51.51-17.66L51.51-17.66L51.51-17.66Q49.15-12.49 49.15-7.48L49.15-7.48L49.15-7.48Q49.15-1.38 52.48-1.38L52.48-1.38L52.48-1.38Q54.37-1.38 56.42-4.28L56.42-4.28L56.42-4.28Q58.47-7.17 59.83-11.88L59.83-11.88L59.83-11.88Q61.18-16.59 61.18-21.35L61.18-21.35L61.18-21.96L61.18-21.96Q59.60-22.99 58.57-24.52L58.57-24.52L58.57-24.52Q57.55-26.06 57.55-26.78L57.55-26.78L57.55-26.78Q57.55-27.49 58.19-28.13L58.19-28.13L58.19-28.13Q58.83-28.77 59.49-28.77L59.49-28.77L59.49-28.77Q60.47-28.77 61.39-27.03L61.39-27.03L61.39-27.03Q62.31-25.29 62.67-23.09L62.67-23.09L62.67-23.09Q64.26-22.02 65.46-22.02L65.46-22.02L65.46-22.02Q66.66-22.02 67.38-22.43L67.38-22.43L67.38-22.43Q67.38-21.71 66.87-21.15L66.87-21.15L66.87-21.15Q66.36-20.58 65.28-20.58L65.28-20.58L65.28-20.58Q64.20-20.58 62.82-21.09L62.82-21.09L62.82-21.09Q62.77-16.18 61.34-11.21L61.34-11.21L61.34-11.21Q59.90-6.25 57.34-2.89L57.34-2.89L57.34-2.89Q54.78 0.46 51.92 0.46ZM68.15-4.35L68.15-4.35L68.15-4.35Q68.15-11.93 69.71-17.87L69.71-17.87L69.71-17.87Q71.27-23.81 73.68-23.81L73.68-23.81L73.68-23.81Q74.85-23.81 74.85-22.53L74.85-22.53L74.85-22.53Q74.34-21.20 73.57-19.00L73.57-19.00L73.57-19.00Q72.81-16.79 71.55-11.03L71.55-11.03L71.55-11.03Q70.30-5.27 70.30-0.77L70.30-0.77L70.30-0.77Q70.30-0.05 69.53-0.05L69.53-0.05L69.53-0.05Q68.15-0.05 68.15-4.35ZM75.62-29.49L75.01-28.62L75.01-28.62Q73.93-28.62 73.93-30.67L73.93-30.67L73.93-30.67Q73.93-31.90 74.60-33.25L74.60-33.25L74.60-33.25Q75.26-34.61 76.49-34.61L76.49-34.61L76.49-34.61Q77.52-34.61 77.52-33.43L77.52-33.43L77.52-33.43Q77.52-32.26 75.62-29.49L75.62-29.49ZM80.49 2.10L80.49 2.10L80.49 2.10Q80.49 5.89 84.48 6.66L84.48 6.66L84.48 6.66Q85.25 6.81 86.22 6.81L86.22 6.81L86.22 6.81Q92.62 6.81 96.36 2.69L96.36 2.69L96.36 2.69Q100.10-1.43 100.10-7.68L100.10-7.68L100.10-7.68Q100.10-10.14 99.20-12.21L99.20-12.21L99.20-12.21Q98.30-14.28 96.97-15.64L96.97-15.64L96.97-15.64Q95.64-17.00 94.08-18.38L94.08-18.38L94.08-18.38Q92.52-19.76 91.19-20.89L91.19-20.89L91.19-20.89Q89.86-22.02 88.96-23.60L88.96-23.60L88.96-23.60Q88.06-25.19 88.06-26.98L88.06-26.98L88.06-26.98Q88.06-31.69 92.29-35.66L92.29-35.66L92.29-35.66Q96.51-39.63 101.38-39.63L101.38-39.63L101.38-39.63Q102.35-39.63 102.81-38.91L102.81-38.91L102.81-38.91Q103.27-38.20 103.27-37.48L103.27-37.48L103.22-36.81L103.22-36.81Q102.86-37.02 101.43-37.02L101.43-37.02L101.43-37.02Q98.15-37.02 95.08-33.95L95.08-33.95L95.08-33.95Q92.01-30.87 92.01-26.83L92.01-26.83L92.01-26.83Q92.01-25.19 92.90-23.63L92.90-23.63L92.90-23.63Q93.80-22.07 95.13-20.89L95.13-20.89L95.13-20.89Q96.46-19.71 98.00-18.25L98.00-18.25L98.00-18.25Q99.53-16.79 100.86-15.39L100.86-15.39L100.86-15.39Q102.20-13.98 103.09-11.96L103.09-11.96L103.09-11.96Q103.99-9.93 103.99-7.68L103.99-7.68L103.99-7.68Q103.99-1.48 98.87 3.33L98.87 3.33L98.87 3.33Q93.75 8.14 86.22 8.14L86.22 8.14L86.22 8.14Q79.87 8.14 78.18 4.04L78.18 4.04L78.18 4.04Q76.85 0.67 79.21-3.43L79.21-3.43L79.21-3.43Q81.56-7.53 86.02-8.96L86.02-8.96L86.02-8.96Q87.65-9.47 88.93-9.47L88.93-9.47L88.93-9.47Q90.21-9.47 90.70-9.04L90.70-9.04L90.70-9.04Q91.19-8.60 91.34-7.68L91.34-7.68L91.34-7.68Q86.53-7.68 83.10-3.79L83.10-3.79L83.10-3.79Q80.49-0.87 80.49 2.10ZM104.24-26.21L104.24-26.21L104.24-26.21Q104.24-25.96 103.76-25.96L103.76-25.96L103.76-25.96Q103.27-25.96 102.86-26.16L102.86-26.16L102.86-26.16Q102.45-26.37 102.45-26.73L102.45-26.73L102.45-26.73Q102.45-31.95 103.63-35.12L103.63-35.12L103.63-35.12Q104.81-38.30 106.75-38.30L106.75-38.30L106.75-38.30Q107.26-38.30 107.62-37.94L107.62-37.94L107.62-37.94Q107.98-37.58 107.98-37.02L107.98-37.02L107.98-37.02Q105.68-34.71 104.65-30.11L104.65-30.11L104.65-30.11Q104.24-28.26 104.24-26.21ZM115.10 0.46L115.10 0.46L115.10 0.46Q108.80 0.46 108.80-8.19L108.80-8.19L108.80-8.19Q108.80-13.06 111.26-17.92L111.26-17.92L111.26-17.92Q114.38-24.06 118.68-24.06L118.68-24.06L118.68-24.06Q119.30-24.06 119.71-23.76L119.71-23.76L119.71-23.76Q120.12-23.45 120.27-22.84L120.27-22.84L120.27-22.84Q117.04-22.84 114.69-17.66L114.69-17.66L114.69-17.66Q112.33-12.49 112.33-7.48L112.33-7.48L112.33-7.48Q112.33-1.38 115.66-1.38L115.66-1.38L115.66-1.38Q117.56-1.38 119.60-4.28L119.60-4.28L119.60-4.28Q121.65-7.17 123.01-11.88L123.01-11.88L123.01-11.88Q124.36-16.59 124.36-21.35L124.36-21.35L124.36-21.96L124.36-21.96Q122.78-22.99 121.75-24.52L121.75-24.52L121.75-24.52Q120.73-26.06 120.73-26.78L120.73-26.78L120.73-26.78Q120.73-27.49 121.37-28.13L121.37-28.13L121.37-28.13Q122.01-28.77 122.68-28.77L122.68-28.77L122.68-28.77Q123.65-28.77 124.57-27.03L124.57-27.03L124.57-27.03Q125.49-25.29 125.85-23.09L125.85-23.09L125.85-23.09Q127.44-22.02 128.64-22.02L128.64-22.02L128.64-22.02Q129.84-22.02 130.56-22.43L130.56-22.43L130.56-22.43Q130.56-21.71 130.05-21.15L130.05-21.15L130.05-21.15Q129.54-20.58 128.46-20.58L128.46-20.58L128.46-20.58Q127.39-20.58 126.00-21.09L126.00-21.09L126.00-21.09Q125.95-16.18 124.52-11.21L124.52-11.21L124.52-11.21Q123.08-6.25 120.52-2.89L120.52-2.89L120.52-2.89Q117.96 0.46 115.10 0.46ZM137.52 7.48L137.52 7.48L137.52 7.48Q134.55 7.48 133.15 4.35L133.15 4.35L133.15 4.35Q131.74 1.23 131.74-5.02L131.74-5.02L131.74-5.02Q131.74-11.26 133.58-19.81L133.58-19.81L133.58-19.81Q135.42-28.36 137.91-34.00L137.91-34.00L137.91-34.00Q140.39-39.63 142.23-39.63L142.23-39.63L142.23-39.63Q143.10-39.63 143.10-38.60L143.10-38.60L143.10-38.60Q142.03-36.15 140.39-31.21L140.39-31.21L140.39-31.21Q138.75-26.27 137.65-22.07L137.65-22.07L137.65-22.07Q136.55-17.87 135.65-12.24L135.65-12.24L135.65-12.24Q134.76-6.60 134.76-2.59L134.76-2.59L134.76-2.59Q134.76 1.43 135.55 3.61L135.55 3.61L135.55 3.61Q136.35 5.79 137.73 5.79L137.73 5.79L137.73 5.79Q138.91 5.79 139.98 4.68L139.98 4.68L139.98 4.68Q141.06 3.58 141.52 2.51L141.52 2.51L141.52 2.51Q141.77 1.95 142.44 2.20L142.44 2.20L142.44 2.20Q142.69 2.30 142.57 2.64L142.57 2.64L142.57 2.64Q142.44 2.97 142.16 3.48L142.16 3.48L142.16 3.48Q141.88 3.99 141.16 5.07L141.16 5.07L141.16 5.07Q139.62 7.48 137.52 7.48ZM161.38 3.84L161.38 3.84L161.38 3.84Q162.00 3.84 162.53 3.30L162.53 3.30L162.53 3.30Q163.07 2.76 163.53 1.64L163.53 1.64L163.53 1.64Q163.58 1.18 164.15 1.18L164.15 1.18L164.15 1.18Q164.71 1.18 164.58 1.64L164.58 1.64L164.58 1.64Q164.45 2.10 164.17 2.76L164.17 2.76L164.17 2.76Q163.89 3.43 163.00 4.53L163.00 4.53L163.00 4.53Q162.10 5.63 161.18 5.63L161.18 5.63L161.18 5.63Q159.13 5.63 158.00 3.07L158.00 3.07L158.00 3.07Q156.83 0.51 156.83-3.25L156.83-3.25L156.83-3.25Q156.83-7.01 157.39-11.01L157.39-11.01L156.93-11.01L156.93-11.01Q150.73-0.20 147.40-0.20L147.40-0.20L147.40-0.20Q143.46-0.20 143.46-6.22L143.46-6.22L143.46-6.22Q143.46-12.24 146.02-18.23L146.02-18.23L146.02-18.23Q148.84-24.83 150.99-24.83L150.99-24.83L150.99-24.83Q151.91-24.83 151.91-23.71L151.91-23.71L151.91-23.71Q149.76-18.02 148.22-12.65L148.22-12.65L148.22-12.65Q146.69-7.27 146.69-4.63L146.69-4.63L146.69-4.63Q146.69-2.00 147.92-2.00L147.92-2.00L147.92-2.00Q148.79-2.00 150.50-4.10L150.50-4.10L150.50-4.10Q152.22-6.20 154.01-9.22L154.01-9.22L154.01-9.22Q157.85-15.72 159.87-20.28L159.87-20.28L159.87-20.28Q161.89-24.83 164.04-24.83L164.04-24.83L164.04-24.83Q165.07-24.83 165.07-23.71L165.07-23.71L165.07-23.71Q161.79-17.20 160.41-8.19L160.41-8.19L160.41-8.19Q159.85-4.61 159.85-1.18L159.85-1.18L159.85-1.18Q159.85 3.84 161.38 3.84ZM170.80-22.17L170.80-22.17L170.80-22.17Q168.81-22.17 168.81-23.81L168.81-23.81L168.81-23.81Q168.81-24.42 169.32-24.58L169.32-24.58L169.32-24.58Q169.37-24.63 169.47-24.63L169.47-24.63L169.47-24.63Q169.78-24.27 170.62-24.27L170.62-24.27L170.62-24.27Q171.47-24.27 173.31-24.37L173.31-24.37L173.31-24.37Q175.72-30.87 177.92-30.87L177.92-30.87L177.92-30.87Q178.79-30.87 178.79-29.90L178.79-29.90L178.79-29.90Q177.97-27.85 176.95-24.63L176.95-24.63L176.95-24.63Q182.02-25.19 183.55-25.19L183.55-25.19L183.55-25.19Q183.96-25.19 183.96-24.78L183.96-24.78L183.96-24.78Q183.96-23.96 182.89-23.96L182.89-23.96L182.89-23.96Q182.32-23.96 176.38-22.89L176.38-22.89L176.38-22.89Q172.34-10.09 172.34-2.15L172.34-2.15L172.34-2.15Q172.34 5.79 175.51 5.79L175.51 5.79L175.51 5.79Q176.79 5.79 177.92 4.68L177.92 4.68L177.92 4.68Q179.05 3.58 179.51 2.51L179.51 2.51L179.51 2.51Q179.71 1.95 180.38 2.20L180.38 2.20L180.38 2.20Q180.68 2.30 180.58 2.51L180.58 2.51L180.58 2.51Q180.28 3.17 179.81 4.04L179.81 4.04L179.81 4.04Q179.35 4.92 178.02 6.20L178.02 6.20L178.02 6.20Q176.69 7.48 175.31 7.48L175.31 7.48L175.31 7.48Q169.22 7.48 169.22-3.12L169.22-3.12L169.22-3.12Q169.22-12.08 172.54-22.27L172.54-22.27L172.54-22.27Q171.83-22.17 170.80-22.17ZM183.91-4.35L183.91-4.35L183.91-4.35Q183.91-11.93 185.47-17.87L185.47-17.87L185.47-17.87Q187.03-23.81 189.44-23.81L189.44-23.81L189.44-23.81Q190.62-23.81 190.62-22.53L190.62-22.53L190.62-22.53Q190.11-21.20 189.34-19.00L189.34-19.00L189.34-19.00Q188.57-16.79 187.32-11.03L187.32-11.03L187.32-11.03Q186.06-5.27 186.06-0.77L186.06-0.77L186.06-0.77Q186.06-0.05 185.29-0.05L185.29-0.05L185.29-0.05Q183.91-0.05 183.91-4.35ZM191.39-29.49L190.77-28.62L190.77-28.62Q189.70-28.62 189.70-30.67L189.70-30.67L189.70-30.67Q189.70-31.90 190.36-33.25L190.36-33.25L190.36-33.25Q191.03-34.61 192.26-34.61L192.26-34.61L192.26-34.61Q193.28-34.61 193.28-33.43L193.28-33.43L193.28-33.43Q193.28-32.26 191.39-29.49L191.39-29.49ZM199.99 0.46L199.99 0.46L199.99 0.46Q193.69 0.46 193.69-8.19L193.69-8.19L193.69-8.19Q193.69-13.06 196.15-17.92L196.15-17.92L196.15-17.92Q199.27-24.06 203.57-24.06L203.57-24.06L203.57-24.06Q204.19-24.06 204.60-23.76L204.60-23.76L204.60-23.76Q205.00-23.45 205.16-22.84L205.16-22.84L205.16-22.84Q201.93-22.84 199.58-17.66L199.58-17.66L199.58-17.66Q197.22-12.49 197.22-7.48L197.22-7.48L197.22-7.48Q197.22-1.38 200.55-1.38L200.55-1.38L200.55-1.38Q202.44-1.38 204.49-4.28L204.49-4.28L204.49-4.28Q206.54-7.17 207.90-11.88L207.90-11.88L207.90-11.88Q209.25-16.59 209.25-21.35L209.25-21.35L209.25-21.96L209.25-21.96Q207.67-22.99 206.64-24.52L206.64-24.52L206.64-24.52Q205.62-26.06 205.62-26.78L205.62-26.78L205.62-26.78Q205.62-27.49 206.26-28.13L206.26-28.13L206.26-28.13Q206.90-28.77 207.56-28.77L207.56-28.77L207.56-28.77Q208.54-28.77 209.46-27.03L209.46-27.03L209.46-27.03Q210.38-25.29 210.74-23.09L210.74-23.09L210.74-23.09Q212.33-22.02 213.53-22.02L213.53-22.02L213.53-22.02Q214.73-22.02 215.45-22.43L215.45-22.43L215.45-22.43Q215.45-21.71 214.94-21.15L214.94-21.15L214.94-21.15Q214.43-20.58 213.35-20.58L213.35-20.58L213.35-20.58Q212.28-20.58 210.89-21.09L210.89-21.09L210.89-21.09Q210.84-16.18 209.41-11.21L209.41-11.21L209.41-11.21Q207.97-6.25 205.41-2.89L205.41-2.89L205.41-2.89Q202.85 0.46 199.99 0.46ZM218.37-8.29L218.83-8.29L218.83-8.29Q225.43-24.63 231.68-24.63L231.68-24.63L231.68-24.63Q234.29-24.63 234.29-22.12L234.29-22.12L234.29-22.12Q233.93-20.94 233.37-19.02L233.37-19.02L233.37-19.02Q232.81-17.10 231.86-12.13L231.86-12.13L231.86-12.13Q230.91-7.17 230.91-3.43L230.91-3.43L230.91-3.43Q230.91 2.00 232.50 2.00L232.50 2.00L232.50 2.00Q233.11 2.00 233.68 1.51L233.68 1.51L233.68 1.51Q234.24 1.02 234.44 1.02L234.44 1.02L234.44 1.02Q235.16 1.02 234.44 2.15L234.44 2.15L234.44 2.15Q234.19 2.51 233.50 3.12L233.50 3.12L233.50 3.12Q232.81 3.74 232.09 3.74L232.09 3.74L232.09 3.74Q230.14 3.74 229.04 0.95L229.04 0.95L229.04 0.95Q227.94-1.84 227.94-6.30L227.94-6.30L227.94-6.30Q227.94-13.36 230.14-21.81L230.14-21.81L230.14-21.81Q230.35-22.48 229.73-22.48L229.73-22.48L229.73-22.48Q229.32-22.48 228.81-22.07L228.81-22.07L228.81-22.07Q226.36-19.92 223.64-14.95L223.64-14.95L223.64-14.95Q220.93-9.98 219.39-6.07L219.39-6.07L219.39-6.07Q217.86-2.15 217.86-1.51L217.86-1.51L217.86-1.51Q217.86-0.87 217.14-0.87L217.14-0.87L217.14-0.87Q215.50-0.87 215.50-4.92L215.50-4.92L215.50-4.92Q215.50-12.54 217.06-18.74L217.06-18.74L217.06-18.74Q218.62-24.93 220.83-24.93L220.83-24.93L220.83-24.93Q221.75-24.93 221.75-23.81L221.75-23.81L221.75-23.81Q219.39-16.18 218.37-8.29L218.37-8.29Z" fill="#ccc"></path></g></g><style>text {
  font-size: 64px;
  font-family: Arial Black;
  dominant-baseline: central;
  text-anchor: middle;
}</style></svg>