<svg width="543.96494140625px" height="142.8800018310547px" xmlns="http://www.w3.org/2000/svg" viewBox="-21.98247070312499 3.5599990844726506 543.96494140625 142.8800018310547" style="background: rgba(0, 0, 0, 0);" preserveAspectRatio="xMidYMid"><defs><filter id="editing-hole" x="-100%" y="-100%" width="300%" height="300%"><feFlood flood-color="#cccccc" result="black"></feFlood><feMorphology operator="dilate" radius="2" in="SourceGraphic" result="erode"></feMorphology><feGaussianBlur in="erode" stdDeviation="4" result="blur"></feGaussianBlur><feOffset in="blur" dx="2" dy="2" result="offset"></feOffset><feComposite operator="atop" in="offset" in2="black" result="merge"></feComposite><feComposite operator="in" in="merge" in2="SourceGraphic" result="inner-shadow"></feComposite></filter></defs><g filter="url(#editing-hole)"><g transform="translate(56.89002966880798, 99.04500198364258)"><path d="M7.78 0.34L7.78 0.34L4.75 0.34L4.75 0.34Q2.72-8.50 2.72-13L2.72-13L2.72-13Q2.72-13.72 4.13-14.19L4.13-14.19L4.13-14.19Q5.53-14.66 7.06-14.66L7.06-14.66L7.06-14.66Q7.69-14.66 8.06-14.56L8.06-14.56L8.06-14.56Q9.06-12.03 10.84-10.06L10.84-10.06L10.84-10.06Q12.63-8.09 14.73-6.97L14.73-6.97L14.73-6.97Q16.84-5.84 18.95-5.27L18.95-5.27L18.95-5.27Q21.06-4.69 23.03-4.69L23.03-4.69L23.03-4.69Q26.63-4.69 28.89-6.30L28.89-6.30L28.89-6.30Q31.16-7.91 31.16-11.03L31.16-11.03L31.16-11.03Q31.16-13.13 30.14-14.70L30.14-14.70L30.14-14.70Q29.13-16.28 27.42-17.27L27.42-17.27L27.42-17.27Q25.72-18.25 23.52-19L23.52-19L23.52-19Q21.31-19.75 18.86-20.41L18.86-20.41L18.86-20.41Q16.41-21.06 13.95-21.78L13.95-21.78L13.95-21.78Q11.50-22.50 9.30-23.59L9.30-23.59L9.30-23.59Q7.09-24.69 5.39-26.14L5.39-26.14L5.39-26.14Q3.69-27.59 2.67-29.91L2.67-29.91L2.67-29.91Q1.66-32.22 1.66-35.22L1.66-35.22L1.66-35.22Q1.66-39.06 4.03-41.86L4.03-41.86L4.03-41.86Q6.41-44.66 10.02-45.95L10.02-45.95L10.02-45.95Q13.63-47.25 17.88-47.25L17.88-47.25L17.88-47.25Q24.50-47.25 29.13-43.94L29.13-43.94L29.13-43.94Q29.44-44.56 29.61-45.16L29.61-45.16L29.61-45.16Q29.78-45.75 29.78-45.97L29.78-45.97L29.78-45.97Q29.78-46.19 30.05-46.38L30.05-46.38L30.05-46.38Q30.31-46.56 30.72-46.58L30.72-46.58L30.72-46.58Q31.13-46.59 32.19-46.59L32.19-46.59L32.19-46.59Q33.13-46.59 35.16-46.44L35.16-46.44L35.16-46.44Q37.13-37.72 37.13-34.03L37.13-34.03L37.13-34.03Q37.13-33.53 35.48-33.22L35.48-33.22L35.48-33.22Q33.84-32.91 32.28-32.91L32.28-32.91L31.50-32.91L31.50-32.91Q30.34-37 26.91-39.64L26.91-39.64L26.91-39.64Q23.47-42.28 18.25-42.28L18.25-42.28L18.25-42.28Q13.84-42.28 11.63-40.53L11.63-40.53L11.63-40.53Q9.41-38.78 9.41-35.75L9.41-35.75L9.41-35.75Q9.41-33.97 10.42-32.59L10.42-32.59L10.42-32.59Q11.44-31.22 13.16-30.33L13.16-30.33L13.16-30.33Q14.88-29.44 17.09-28.72L17.09-28.72L17.09-28.72Q19.31-28 21.78-27.31L21.78-27.31L21.78-27.31Q24.25-26.63 26.72-25.84L26.72-25.84L26.72-25.84Q29.19-25.06 31.41-23.91L31.41-23.91L31.41-23.91Q33.63-22.75 35.34-21.25L35.34-21.25L35.34-21.25Q37.06-19.75 38.08-17.42L38.08-17.42L38.08-17.42Q39.09-15.09 39.09-12.16L39.09-12.16L39.09-12.16Q39.09-8.81 37.78-6.23L37.78-6.23L37.78-6.23Q36.47-3.66 34.20-2.16L34.20-2.16L34.20-2.16Q31.94-0.66 29.14 0.09L29.14 0.09L29.14 0.09Q26.34 0.84 23.13 0.84L23.13 0.84L23.13 0.84Q19.69 0.84 16.30-0.31L16.30-0.31L16.30-0.31Q12.91-1.47 10.16-3.53L10.16-3.53L9.63-0.44L9.63-0.44Q9.56-0.16 9.45-0.02L9.45-0.02L9.45-0.02Q9.34 0.13 8.94 0.23L8.94 0.23L8.94 0.23Q8.53 0.34 7.78 0.34ZM63.59-6.25L63.59-6.25L63.59-6.25Q64.53-4.47 64.53-2.91L64.53-2.91L64.53-2.91Q64.53-2.03 63.77-1.39L63.77-1.39L63.77-1.39Q63-0.75 61.78-0.41L61.78-0.41L61.78-0.41Q60.56-0.06 59.34 0.09L59.34 0.09L59.34 0.09Q58.13 0.25 56.97 0.25L56.97 0.25L56.97 0.25Q55.22 0.25 53.72-0.25L53.72-0.25L53.72-0.25Q52.22-0.75 50.86-1.89L50.86-1.89L50.86-1.89Q49.50-3.03 48.72-5.20L48.72-5.20L48.72-5.20Q47.94-7.38 47.94-10.38L47.94-10.38L47.94-28.50L46.59-28.50L46.59-28.50Q42.91-28.50 42.56-28.47L42.56-28.47L42.56-28.47Q41.53-28.84 41.53-30.88L41.53-30.88L41.53-30.88Q41.53-33.34 43.09-33.34L43.09-33.34L47.94-33.34L47.94-33.34Q48.06-34.34 48.17-35.95L48.17-35.95L48.17-35.95Q48.28-37.56 48.38-38.50L48.38-38.50L48.38-38.50Q48.47-39.44 48.67-40.72L48.67-40.72L48.67-40.72Q48.88-42 49.23-42.73L49.23-42.73L49.23-42.73Q49.59-43.47 50.16-44.19L50.16-44.19L50.16-44.19Q50.72-44.91 51.61-45.23L51.61-45.23L51.61-45.23Q52.50-45.56 53.72-45.56L53.72-45.56L53.72-45.56Q54.56-45.56 55.03-45.28L55.03-45.28L55.03-33.34L59.19-33.34L59.19-33.34Q62.91-33.34 63.09-33.50L63.09-33.50L63.09-33.50Q64.66-33.50 64.66-30.81L64.66-30.81L64.66-30.81Q64.66-28.78 63.63-28.41L63.63-28.41L63.63-28.41Q62.59-28.50 59.59-28.50L59.59-28.50L55.03-28.50L55.03-10.56L55.03-10.56Q55.03-5.38 58.41-5.38L58.41-5.38L58.41-5.38Q60.59-5.38 63.59-6.25ZM68.59-9.08L68.59-9.08L68.59-9.08Q67.09-12.50 67.09-16.72L67.09-16.72L67.09-16.72Q67.09-20.94 68.59-24.34L68.59-24.34L68.59-24.34Q70.09-27.75 72.59-29.86L72.59-29.86L72.59-29.86Q75.09-31.97 78.19-33.09L78.19-33.09L78.19-33.09Q81.28-34.22 84.66-34.22L84.66-34.22L84.66-34.22Q88-34.22 91.09-33.09L91.09-33.09L91.09-33.09Q94.19-31.97 96.67-29.86L96.67-29.86L96.67-29.86Q99.16-27.75 100.66-24.34L100.66-24.34L100.66-24.34Q102.16-20.94 102.16-16.72L102.16-16.72L102.16-16.72Q102.16-12.50 100.66-9.08L100.66-9.08L100.66-9.08Q99.16-5.66 96.67-3.53L96.67-3.53L96.67-3.53Q94.19-1.41 91.09-0.28L91.09-0.28L91.09-0.28Q88 0.84 84.66 0.84L84.66 0.84L84.66 0.84Q81.28 0.84 78.19-0.28L78.19-0.28L78.19-0.28Q75.09-1.41 72.59-3.53L72.59-3.53L72.59-3.53Q70.09-5.66 68.59-9.08ZM77.44-25.69L77.44-25.69L77.44-25.69Q74.41-22.47 74.41-16.72L74.41-16.72L74.41-16.72Q74.41-10.97 77.44-7.73L77.44-7.73L77.44-7.73Q80.47-4.50 84.59-4.50L84.59-4.50L84.59-4.50Q86.56-4.50 88.38-5.28L88.38-5.28L88.38-5.28Q90.19-6.06 91.64-7.55L91.64-7.55L91.64-7.55Q93.09-9.03 93.97-11.41L93.97-11.41L93.97-11.41Q94.84-13.78 94.84-16.72L94.84-16.72L94.84-16.72Q94.84-19.66 93.97-22.03L93.97-22.03L93.97-22.03Q93.09-24.41 91.64-25.88L91.64-25.88L91.64-25.88Q90.19-27.34 88.38-28.13L88.38-28.13L88.38-28.13Q86.56-28.91 84.59-28.91L84.59-28.91L84.59-28.91Q80.47-28.91 77.44-25.69ZM111.72-38.91L111.72-38.91L111.72-38.91Q110.97-38.91 110.19-39.05L110.19-39.05L110.19-39.05Q109.41-39.19 108.48-39.56L108.48-39.56L108.48-39.56Q107.56-39.94 106.98-40.75L106.98-40.75L106.98-40.75Q106.41-41.56 106.41-42.69L106.41-42.69L106.41-42.69Q106.41-46.53 111.59-46.53L111.59-46.53L111.59-46.53Q113.06-46.53 114.08-46.16L114.08-46.16L114.08-46.16Q115.09-45.78 115.58-45.16L115.58-45.16L115.58-45.16Q116.06-44.53 116.25-43.94L116.25-43.94L116.25-43.94Q116.44-43.34 116.44-42.66L116.44-42.66L116.44-42.66Q116.44-41.25 115.56-40.34L115.56-40.34L115.56-40.34Q114.69-39.44 113.70-39.17L113.70-39.17L113.70-39.17Q112.72-38.91 111.72-38.91ZM116.88-30.63L116.88-30.63L116.88-7.84L116.88-7.84Q116.88-7.38 116.92-7.11L116.92-7.11L116.92-7.11Q116.97-6.84 117.14-6.50L117.14-6.50L117.14-6.50Q117.31-6.16 117.75-5.98L117.75-5.98L117.75-5.98Q118.19-5.81 118.88-5.81L118.88-5.81L118.88-5.81Q120.06-5.81 120.91-5.44L120.91-5.44L120.91-5.44Q121.75-5.06 121.75-4.31L121.75-4.31L121.75-4.31Q121.75-0.66 120.72 0.25L120.72 0.25L120.72 0.25Q117.91 0 113.84 0L113.84 0L113.84 0Q109.63 0 105.97 0.25L105.97 0.25L105.97 0.25Q104.94-0.69 104.94-4.31L104.94-4.31L104.94-4.31Q104.94-5.06 105.78-5.44L105.78-5.44L105.78-5.44Q106.63-5.81 107.81-5.81L107.81-5.81L107.81-5.81Q109.03-5.81 109.41-6.33L109.41-6.33L109.41-6.33Q109.78-6.84 109.78-7.78L109.78-7.78L109.78-24.56L109.78-24.56Q109.78-26.22 108.83-26.91L108.83-26.91L108.83-26.91Q107.88-27.59 105.16-27.72L105.16-27.72L105.16-27.72Q104.75-27.81 104.64-28.13L104.64-28.13L104.64-28.13Q104.53-28.44 104.53-29.47L104.53-29.47L104.53-29.47Q104.53-31.06 104.88-32.28L104.88-32.28L104.88-32.28Q105.22-33.50 105.56-33.69L105.56-33.69L105.56-33.69Q107.97-33.34 110.22-33.34L110.22-33.34L110.22-33.34Q111.72-33.34 113.38-33.52L113.38-33.52L113.38-33.52Q115.03-33.69 115.13-33.69L115.13-33.69L115.13-33.69Q116.22-33.69 116.55-33.14L116.55-33.14L116.55-33.14Q116.88-32.59 116.88-30.63ZM130.53 0.34L130.53 0.34L127.50 0.34L127.50 0.34Q125.47-8.50 125.47-13L125.47-13L125.47-13Q125.47-13.72 126.88-14.19L126.88-14.19L126.88-14.19Q128.28-14.66 129.81-14.66L129.81-14.66L129.81-14.66Q130.44-14.66 130.81-14.56L130.81-14.56L130.81-14.56Q131.81-12.03 133.59-10.06L133.59-10.06L133.59-10.06Q135.38-8.09 137.48-6.97L137.48-6.97L137.48-6.97Q139.59-5.84 141.70-5.27L141.70-5.27L141.70-5.27Q143.81-4.69 145.78-4.69L145.78-4.69L145.78-4.69Q149.38-4.69 151.64-6.30L151.64-6.30L151.64-6.30Q153.91-7.91 153.91-11.03L153.91-11.03L153.91-11.03Q153.91-13.13 152.89-14.70L152.89-14.70L152.89-14.70Q151.88-16.28 150.17-17.27L150.17-17.27L150.17-17.27Q148.47-18.25 146.27-19L146.27-19L146.27-19Q144.06-19.75 141.61-20.41L141.61-20.41L141.61-20.41Q139.16-21.06 136.70-21.78L136.70-21.78L136.70-21.78Q134.25-22.50 132.05-23.59L132.05-23.59L132.05-23.59Q129.84-24.69 128.14-26.14L128.14-26.14L128.14-26.14Q126.44-27.59 125.42-29.91L125.42-29.91L125.42-29.91Q124.41-32.22 124.41-35.22L124.41-35.22L124.41-35.22Q124.41-39.06 126.78-41.86L126.78-41.86L126.78-41.86Q129.16-44.66 132.77-45.95L132.77-45.95L132.77-45.95Q136.38-47.25 140.63-47.25L140.63-47.25L140.63-47.25Q147.25-47.25 151.88-43.94L151.88-43.94L151.88-43.94Q152.19-44.56 152.36-45.16L152.36-45.16L152.36-45.16Q152.53-45.75 152.53-45.97L152.53-45.97L152.53-45.97Q152.53-46.19 152.80-46.38L152.80-46.38L152.80-46.38Q153.06-46.56 153.47-46.58L153.47-46.58L153.47-46.58Q153.88-46.59 154.94-46.59L154.94-46.59L154.94-46.59Q155.88-46.59 157.91-46.44L157.91-46.44L157.91-46.44Q159.88-37.72 159.88-34.03L159.88-34.03L159.88-34.03Q159.88-33.53 158.23-33.22L158.23-33.22L158.23-33.22Q156.59-32.91 155.03-32.91L155.03-32.91L154.25-32.91L154.25-32.91Q153.09-37 149.66-39.64L149.66-39.64L149.66-39.64Q146.22-42.28 141-42.28L141-42.28L141-42.28Q136.59-42.28 134.38-40.53L134.38-40.53L134.38-40.53Q132.16-38.78 132.16-35.75L132.16-35.75L132.16-35.75Q132.16-33.97 133.17-32.59L133.17-32.59L133.17-32.59Q134.19-31.22 135.91-30.33L135.91-30.33L135.91-30.33Q137.63-29.44 139.84-28.72L139.84-28.72L139.84-28.72Q142.06-28 144.53-27.31L144.53-27.31L144.53-27.31Q147-26.63 149.47-25.84L149.47-25.84L149.47-25.84Q151.94-25.06 154.16-23.91L154.16-23.91L154.16-23.91Q156.38-22.75 158.09-21.25L158.09-21.25L158.09-21.25Q159.81-19.75 160.83-17.42L160.83-17.42L160.83-17.42Q161.84-15.09 161.84-12.16L161.84-12.16L161.84-12.16Q161.84-8.81 160.53-6.23L160.53-6.23L160.53-6.23Q159.22-3.66 156.95-2.16L156.95-2.16L156.95-2.16Q154.69-0.66 151.89 0.09L151.89 0.09L151.89 0.09Q149.09 0.84 145.88 0.84L145.88 0.84L145.88 0.84Q142.44 0.84 139.05-0.31L139.05-0.31L139.05-0.31Q135.66-1.47 132.91-3.53L132.91-3.53L132.38-0.44L132.38-0.44Q132.31-0.16 132.20-0.02L132.20-0.02L132.20-0.02Q132.09 0.13 131.69 0.23L131.69 0.23L131.69 0.23Q131.28 0.34 130.53 0.34ZM165.78-9.08L165.78-9.08L165.78-9.08Q164.28-12.50 164.28-16.72L164.28-16.72L164.28-16.72Q164.28-20.94 165.78-24.34L165.78-24.34L165.78-24.34Q167.28-27.75 169.78-29.86L169.78-29.86L169.78-29.86Q172.28-31.97 175.38-33.09L175.38-33.09L175.38-33.09Q178.47-34.22 181.84-34.22L181.84-34.22L181.84-34.22Q185.19-34.22 188.28-33.09L188.28-33.09L188.28-33.09Q191.38-31.97 193.86-29.86L193.86-29.86L193.86-29.86Q196.34-27.75 197.84-24.34L197.84-24.34L197.84-24.34Q199.34-20.94 199.34-16.72L199.34-16.72L199.34-16.72Q199.34-12.50 197.84-9.08L197.84-9.08L197.84-9.08Q196.34-5.66 193.86-3.53L193.86-3.53L193.86-3.53Q191.38-1.41 188.28-0.28L188.28-0.28L188.28-0.28Q185.19 0.84 181.84 0.84L181.84 0.84L181.84 0.84Q178.47 0.84 175.38-0.28L175.38-0.28L175.38-0.28Q172.28-1.41 169.78-3.53L169.78-3.53L169.78-3.53Q167.28-5.66 165.78-9.08ZM174.63-25.69L174.63-25.69L174.63-25.69Q171.59-22.47 171.59-16.72L171.59-16.72L171.59-16.72Q171.59-10.97 174.63-7.73L174.63-7.73L174.63-7.73Q177.66-4.50 181.78-4.50L181.78-4.50L181.78-4.50Q183.75-4.50 185.56-5.28L185.56-5.28L185.56-5.28Q187.38-6.06 188.83-7.55L188.83-7.55L188.83-7.55Q190.28-9.03 191.16-11.41L191.16-11.41L191.16-11.41Q192.03-13.78 192.03-16.72L192.03-16.72L192.03-16.72Q192.03-19.66 191.16-22.03L191.16-22.03L191.16-22.03Q190.28-24.41 188.83-25.88L188.83-25.88L188.83-25.88Q187.38-27.34 185.56-28.13L185.56-28.13L185.56-28.13Q183.75-28.91 181.78-28.91L181.78-28.91L181.78-28.91Q177.66-28.91 174.63-25.69ZM213.81-7.84L213.81-7.84L213.81-7.84Q213.81-7.38 213.86-7.11L213.86-7.11L213.86-7.11Q213.91-6.84 214.08-6.50L214.08-6.50L214.08-6.50Q214.25-6.16 214.69-5.98L214.69-5.98L214.69-5.98Q215.13-5.81 215.81-5.81L215.81-5.81L215.81-5.81Q217-5.81 217.84-5.44L217.84-5.44L217.84-5.44Q218.69-5.06 218.69-4.31L218.69-4.31L218.69-4.31Q218.69-0.66 217.66 0.25L217.66 0.25L217.66 0.25Q214.97 0 210.47 0L210.47 0L210.47 0Q205.66 0 202.91 0.25L202.91 0.25L202.91 0.25Q201.88-0.69 201.88-4.31L201.88-4.31L201.88-4.31Q201.88-5.06 202.72-5.44L202.72-5.44L202.72-5.44Q203.56-5.81 204.75-5.81L204.75-5.81L204.75-5.81Q205.97-5.81 206.34-6.33L206.34-6.33L206.34-6.33Q206.72-6.84 206.72-7.78L206.72-7.78L206.72-37.78L206.72-37.78Q206.72-39.44 205.77-40.13L205.77-40.13L205.77-40.13Q204.81-40.81 202.09-40.94L202.09-40.94L202.09-40.94Q201.69-41.03 201.58-41.34L201.58-41.34L201.58-41.34Q201.47-41.66 201.47-42.69L201.47-42.69L201.47-42.69Q201.47-44.28 201.81-45.50L201.81-45.50L201.81-45.50Q202.16-46.72 202.50-46.91L202.50-46.91L202.50-46.91Q205.09-46.56 207.47-46.56L207.47-46.56L207.47-46.56Q208.88-46.56 210.44-46.73L210.44-46.73L210.44-46.73Q212-46.91 212.09-46.91L212.09-46.91L212.09-46.91Q213.19-46.91 213.52-46.36L213.52-46.36L213.52-46.36Q213.84-45.81 213.84-43.84L213.84-43.84L213.84-43.84Q213.84-43.78 213.84-43.66L213.84-43.66L213.84-43.66Q213.81-39.25 213.81-7.84ZM254.56-31.44L254.56-31.44L254.56-8.53L254.56-8.53Q254.56-7.72 254.59-7.38L254.59-7.38L254.59-7.38Q254.63-7.03 254.77-6.61L254.77-6.61L254.77-6.61Q254.91-6.19 255.23-6.05L255.23-6.05L255.23-6.05Q255.56-5.91 256.13-5.80L256.13-5.80L256.13-5.80Q256.69-5.69 257.63-5.69L257.63-5.69L257.63-5.69Q259.03-5.69 259.42-5.34L259.42-5.34L259.42-5.34Q259.81-5 259.81-3.94L259.81-3.94L259.81-3.94Q259.81-2.38 259.45-1.17L259.45-1.17L259.45-1.17Q259.09 0.03 258.78 0.25L258.78 0.25L258.78 0.25Q256.50 0 254.56 0L254.56 0L254.56 0Q253.28 0 251.89 0.13L251.89 0.13L251.89 0.13Q250.50 0.25 250.19 0.25L250.19 0.25L250.19 0.25Q248.94 0.25 248.67-0.50L248.67-0.50L248.67-0.50Q248.41-1.25 248.41-4.50L248.41-4.50L248.41-4.50Q246.22-1.97 243.14-0.56L243.14-0.56L243.14-0.56Q240.06 0.84 236.88 0.84L236.88 0.84L236.88 0.84Q234.56 0.84 232.55 0.08L232.55 0.08L232.55 0.08Q230.53-0.69 228.91-2.19L228.91-2.19L228.91-2.19Q227.28-3.69 226.34-6.22L226.34-6.22L226.34-6.22Q225.41-8.75 225.41-12L225.41-12L225.41-24.53L225.41-24.53Q225.41-27.50 223.84-27.63L223.84-27.63L223.84-27.63Q223.59-27.66 223.14-27.69L223.14-27.69L223.14-27.69Q222.69-27.72 222.42-27.75L222.42-27.75L222.42-27.75Q222.16-27.78 221.78-27.83L221.78-27.83L221.78-27.83Q221.41-27.88 221.19-27.92L221.19-27.92L221.19-27.92Q220.97-27.97 220.67-28.05L220.67-28.05L220.67-28.05Q220.38-28.13 220.22-28.22L220.22-28.22L220.22-28.22Q220.06-28.31 219.91-28.44L219.91-28.44L219.91-28.44Q219.75-28.56 219.69-28.73L219.69-28.73L219.69-28.73Q219.63-28.91 219.63-29.13L219.63-29.13L219.63-29.13Q219.63-32.75 220.66-33.69L220.66-33.69L220.66-33.69Q223.59-33.34 226.06-33.34L226.06-33.34L226.06-33.34Q227.78-33.34 229.58-33.52L229.58-33.52L229.58-33.52Q231.38-33.69 231.44-33.69L231.44-33.69L231.44-33.69Q232.50-33.69 232.50-31.44L232.50-31.44L232.50-11.63L232.50-11.63Q232.50-8.19 234.28-6.47L234.28-6.47L234.28-6.47Q236.06-4.75 238.84-4.75L238.84-4.75L238.84-4.75Q241.22-4.75 243.58-6L243.58-6L243.58-6Q245.94-7.25 247.47-9.41L247.47-9.41L247.47-24.53L247.47-24.53Q247.47-27.50 245.91-27.63L245.91-27.63L245.91-27.63Q245.66-27.66 245.20-27.69L245.20-27.69L245.20-27.69Q244.75-27.72 244.48-27.75L244.48-27.75L244.48-27.75Q244.22-27.78 243.84-27.83L243.84-27.83L243.84-27.83Q243.47-27.88 243.25-27.92L243.25-27.92L243.25-27.92Q243.03-27.97 242.73-28.05L242.73-28.05L242.73-28.05Q242.44-28.13 242.28-28.22L242.28-28.22L242.28-28.22Q242.13-28.31 241.97-28.44L241.97-28.44L241.97-28.44Q241.81-28.56 241.75-28.73L241.75-28.73L241.75-28.73Q241.69-28.91 241.69-29.13L241.69-29.13L241.69-29.13Q241.69-32.78 242.72-33.69L242.72-33.69L242.72-33.69Q245.66-33.34 248.13-33.34L248.13-33.34L248.13-33.34Q250.19-33.34 252.33-33.52L252.33-33.52L252.33-33.52Q254.47-33.69 254.53-33.69L254.53-33.69L254.53-33.69Q254.56-33.69 254.56-31.44ZM283.91-6.25L283.91-6.25L283.91-6.25Q284.84-4.47 284.84-2.91L284.84-2.91L284.84-2.91Q284.84-2.03 284.08-1.39L284.08-1.39L284.08-1.39Q283.31-0.75 282.09-0.41L282.09-0.41L282.09-0.41Q280.88-0.06 279.66 0.09L279.66 0.09L279.66 0.09Q278.44 0.25 277.28 0.25L277.28 0.25L277.28 0.25Q275.53 0.25 274.03-0.25L274.03-0.25L274.03-0.25Q272.53-0.75 271.17-1.89L271.17-1.89L271.17-1.89Q269.81-3.03 269.03-5.20L269.03-5.20L269.03-5.20Q268.25-7.38 268.25-10.38L268.25-10.38L268.25-28.50L266.91-28.50L266.91-28.50Q263.22-28.50 262.88-28.47L262.88-28.47L262.88-28.47Q261.84-28.84 261.84-30.88L261.84-30.88L261.84-30.88Q261.84-33.34 263.41-33.34L263.41-33.34L268.25-33.34L268.25-33.34Q268.38-34.34 268.48-35.95L268.48-35.95L268.48-35.95Q268.59-37.56 268.69-38.50L268.69-38.50L268.69-38.50Q268.78-39.44 268.98-40.72L268.98-40.72L268.98-40.72Q269.19-42 269.55-42.73L269.55-42.73L269.55-42.73Q269.91-43.47 270.47-44.19L270.47-44.19L270.47-44.19Q271.03-44.91 271.92-45.23L271.92-45.23L271.92-45.23Q272.81-45.56 274.03-45.56L274.03-45.56L274.03-45.56Q274.88-45.56 275.34-45.28L275.34-45.28L275.34-33.34L279.50-33.34L279.50-33.34Q283.22-33.34 283.41-33.50L283.41-33.50L283.41-33.50Q284.97-33.50 284.97-30.81L284.97-30.81L284.97-30.81Q284.97-28.78 283.94-28.41L283.94-28.41L283.94-28.41Q282.91-28.50 279.91-28.50L279.91-28.50L275.34-28.50L275.34-10.56L275.34-10.56Q275.34-5.38 278.72-5.38L278.72-5.38L278.72-5.38Q280.91-5.38 283.91-6.25ZM294.72-38.91L294.72-38.91L294.72-38.91Q293.97-38.91 293.19-39.05L293.19-39.05L293.19-39.05Q292.41-39.19 291.48-39.56L291.48-39.56L291.48-39.56Q290.56-39.94 289.98-40.75L289.98-40.75L289.98-40.75Q289.41-41.56 289.41-42.69L289.41-42.69L289.41-42.69Q289.41-46.53 294.59-46.53L294.59-46.53L294.59-46.53Q296.06-46.53 297.08-46.16L297.08-46.16L297.08-46.16Q298.09-45.78 298.58-45.16L298.58-45.16L298.58-45.16Q299.06-44.53 299.25-43.94L299.25-43.94L299.25-43.94Q299.44-43.34 299.44-42.66L299.44-42.66L299.44-42.66Q299.44-41.25 298.56-40.34L298.56-40.34L298.56-40.34Q297.69-39.44 296.70-39.17L296.70-39.17L296.70-39.17Q295.72-38.91 294.72-38.91ZM299.88-30.63L299.88-30.63L299.88-7.84L299.88-7.84Q299.88-7.38 299.92-7.11L299.92-7.11L299.92-7.11Q299.97-6.84 300.14-6.50L300.14-6.50L300.14-6.50Q300.31-6.16 300.75-5.98L300.75-5.98L300.75-5.98Q301.19-5.81 301.88-5.81L301.88-5.81L301.88-5.81Q303.06-5.81 303.91-5.44L303.91-5.44L303.91-5.44Q304.75-5.06 304.75-4.31L304.75-4.31L304.75-4.31Q304.75-0.66 303.72 0.25L303.72 0.25L303.72 0.25Q300.91 0 296.84 0L296.84 0L296.84 0Q292.63 0 288.97 0.25L288.97 0.25L288.97 0.25Q287.94-0.69 287.94-4.31L287.94-4.31L287.94-4.31Q287.94-5.06 288.78-5.44L288.78-5.44L288.78-5.44Q289.63-5.81 290.81-5.81L290.81-5.81L290.81-5.81Q292.03-5.81 292.41-6.33L292.41-6.33L292.41-6.33Q292.78-6.84 292.78-7.78L292.78-7.78L292.78-24.56L292.78-24.56Q292.78-26.22 291.83-26.91L291.83-26.91L291.83-26.91Q290.88-27.59 288.16-27.72L288.16-27.72L288.16-27.72Q287.75-27.81 287.64-28.13L287.64-28.13L287.64-28.13Q287.53-28.44 287.53-29.47L287.53-29.47L287.53-29.47Q287.53-31.06 287.88-32.28L287.88-32.28L287.88-32.28Q288.22-33.50 288.56-33.69L288.56-33.69L288.56-33.69Q290.97-33.34 293.22-33.34L293.22-33.34L293.22-33.34Q294.72-33.34 296.38-33.52L296.38-33.52L296.38-33.52Q298.03-33.69 298.13-33.69L298.13-33.69L298.13-33.69Q299.22-33.69 299.55-33.14L299.55-33.14L299.55-33.14Q299.88-32.59 299.88-30.63ZM308.31-9.08L308.31-9.08L308.31-9.08Q306.81-12.50 306.81-16.72L306.81-16.72L306.81-16.72Q306.81-20.94 308.31-24.34L308.31-24.34L308.31-24.34Q309.81-27.75 312.31-29.86L312.31-29.86L312.31-29.86Q314.81-31.97 317.91-33.09L317.91-33.09L317.91-33.09Q321-34.22 324.38-34.22L324.38-34.22L324.38-34.22Q327.72-34.22 330.81-33.09L330.81-33.09L330.81-33.09Q333.91-31.97 336.39-29.86L336.39-29.86L336.39-29.86Q338.88-27.75 340.38-24.34L340.38-24.34L340.38-24.34Q341.88-20.94 341.88-16.72L341.88-16.72L341.88-16.72Q341.88-12.50 340.38-9.08L340.38-9.08L340.38-9.08Q338.88-5.66 336.39-3.53L336.39-3.53L336.39-3.53Q333.91-1.41 330.81-0.28L330.81-0.28L330.81-0.28Q327.72 0.84 324.38 0.84L324.38 0.84L324.38 0.84Q321 0.84 317.91-0.28L317.91-0.28L317.91-0.28Q314.81-1.41 312.31-3.53L312.31-3.53L312.31-3.53Q309.81-5.66 308.31-9.08ZM317.16-25.69L317.16-25.69L317.16-25.69Q314.13-22.47 314.13-16.72L314.13-16.72L314.13-16.72Q314.13-10.97 317.16-7.73L317.16-7.73L317.16-7.73Q320.19-4.50 324.31-4.50L324.31-4.50L324.31-4.50Q326.28-4.50 328.09-5.28L328.09-5.28L328.09-5.28Q329.91-6.06 331.36-7.55L331.36-7.55L331.36-7.55Q332.81-9.03 333.69-11.41L333.69-11.41L333.69-11.41Q334.56-13.78 334.56-16.72L334.56-16.72L334.56-16.72Q334.56-19.66 333.69-22.03L333.69-22.03L333.69-22.03Q332.81-24.41 331.36-25.88L331.36-25.88L331.36-25.88Q329.91-27.34 328.09-28.13L328.09-28.13L328.09-28.13Q326.28-28.91 324.31-28.91L324.31-28.91L324.31-28.91Q320.19-28.91 317.16-25.69ZM383.53 0.25L383.53 0.25L383.53 0.25Q380.50 0 378.06 0L378.06 0L378.06 0Q376.47 0 374.59 0.13L374.59 0.13L374.59 0.13Q372.72 0.25 372.13 0.25L372.13 0.25L372.13 0.25Q371.06 0.25 371.06-2.13L371.06-2.13L371.06-20.84L371.06-20.84Q371.06-24.91 369.75-26.80L369.75-26.80L369.75-26.80Q368.44-28.69 366.31-28.69L366.31-28.69L366.31-28.69Q364.13-28.69 361.52-27.45L361.52-27.45L361.52-27.45Q358.91-26.22 356.63-24.31L356.63-24.31L356.63-7.84L356.63-7.84Q356.63-7.38 356.67-7.11L356.67-7.11L356.67-7.11Q356.72-6.84 356.89-6.50L356.89-6.50L356.89-6.50Q357.06-6.16 357.50-5.98L357.50-5.98L357.50-5.98Q357.94-5.81 358.63-5.81L358.63-5.81L358.63-5.81Q359.81-5.81 360.66-5.44L360.66-5.44L360.66-5.44Q361.50-5.06 361.50-4.31L361.50-4.31L361.50-4.31Q361.50-0.66 360.47 0.25L360.47 0.25L360.47 0.25Q358.56 0 353.31 0L353.31 0L353.31 0Q348.06 0 345.72 0.25L345.72 0.25L345.72 0.25Q344.69-0.69 344.69-4.31L344.69-4.31L344.69-4.31Q344.69-5.06 345.53-5.44L345.53-5.44L345.53-5.44Q346.38-5.81 347.56-5.81L347.56-5.81L347.56-5.81Q348.78-5.81 349.16-6.33L349.16-6.33L349.16-6.33Q349.53-6.84 349.53-7.78L349.53-7.78L349.53-24.56L349.53-24.56Q349.53-26.22 348.58-26.91L348.58-26.91L348.58-26.91Q347.63-27.59 344.91-27.72L344.91-27.72L344.91-27.72Q344.50-27.81 344.39-28.13L344.39-28.13L344.39-28.13Q344.28-28.44 344.28-29.47L344.28-29.47L344.28-29.47Q344.28-31.06 344.63-32.28L344.63-32.28L344.63-32.28Q344.97-33.50 345.31-33.69L345.31-33.69L345.31-33.69Q347.38-33.34 349.34-33.34L349.34-33.34L349.34-33.34Q350.75-33.34 352.31-33.52L352.31-33.52L352.31-33.52Q353.88-33.69 353.97-33.69L353.97-33.69L353.97-33.69Q355.06-33.69 355.39-33.14L355.39-33.14L355.39-33.14Q355.72-32.59 355.72-30.63L355.72-30.63L355.72-30.63Q355.72-30.41 355.70-29.83L355.70-29.83L355.70-29.83Q355.69-29.25 355.69-28.91L355.69-28.91L355.69-28.91Q358.38-31.28 361.78-32.75L361.78-32.75L361.78-32.75Q365.19-34.22 368.34-34.22L368.34-34.22L368.34-34.22Q372.72-34.22 375.44-31.13L375.44-31.13L375.44-31.13Q378.16-28.03 378.16-21.41L378.16-21.41L378.16-7.97L378.16-7.97Q378.16-5.94 379.72-5.81L379.72-5.81L379.72-5.81Q380.03-5.78 380.55-5.75L380.55-5.75L380.55-5.75Q381.06-5.72 381.36-5.69L381.36-5.69L381.36-5.69Q381.66-5.66 382.09-5.61L382.09-5.61L382.09-5.61Q382.53-5.56 382.78-5.52L382.78-5.52L382.78-5.52Q383.03-5.47 383.36-5.39L383.36-5.39L383.36-5.39Q383.69-5.31 383.88-5.22L383.88-5.22L383.88-5.22Q384.06-5.13 384.23-5L384.23-5L384.23-5Q384.41-4.88 384.48-4.70L384.48-4.70L384.48-4.70Q384.56-4.53 384.56-4.31L384.56-4.31L384.56-4.31Q384.56-0.69 383.53 0.25Z" fill="#000000"></path></g></g><style>text {
  font-size: 64px;
  font-family: Arial Black;
  dominant-baseline: central;
  text-anchor: middle;
}</style></svg>